<svg width="3081" height="935" viewBox="0 0 3081 935" fill="none" xmlns="http://www.w3.org/2000/svg">
<path d="M2507.14 0.5C2520.44 0.5 2530.75 1.16306 2538.08 2.48926L2538.21 2.51074C2542.85 3.28628 2547.01 4.17062 2550.72 5.15723C2555.09 6.3241 2558.14 10.2893 2558.14 14.8203V58.0332C2558.14 61 2556.82 63.8139 2554.54 65.7139C2552.27 67.6138 2549.26 68.4035 2546.34 67.8701C2543.86 67.4155 2541.15 66.9653 2538.24 66.5166C2538.2 66.5105 2538.16 66.5037 2538.12 66.4971C2530.13 65.1657 2521.47 64.5 2512.14 64.5C2481.47 64.5 2458.8 72.1697 2444.14 87.5L2443.49 88.2227C2429.93 103.509 2423.14 124.934 2423.14 152.5V220.5H2537.14C2542.66 220.5 2547.14 224.977 2547.14 230.5V278.5C2547.14 284.023 2542.66 288.5 2537.14 288.5H2423.14V720.5C2423.14 726.023 2418.66 730.5 2413.14 730.5H2353.14C2347.62 730.5 2343.14 726.023 2343.14 720.5V288.5H2248.14C2242.62 288.5 2238.14 284.023 2238.14 278.5V230.5C2238.14 224.977 2242.62 220.5 2248.14 220.5H2343.14V148.5C2343.14 101.852 2356.46 65.5323 2383.1 39.5361C2383.14 39.5047 2383.17 39.4734 2383.2 39.4424C2410.53 13.4819 2451.85 0.5 2507.14 0.5Z" fill="white"/>
<path d="M2132.86 220.5C2138.38 220.5 2142.86 224.977 2142.86 230.5V720.5C2142.86 726.023 2138.38 730.5 2132.86 730.5H2072.86C2067.34 730.5 2062.86 726.023 2062.86 720.5V230.5L2062.87 229.985C2063.14 224.702 2067.51 220.5 2072.86 220.5H2132.86ZM2138.86 10.5C2144.38 10.5 2148.86 14.9772 2148.86 20.5V94.5C2148.86 100.023 2144.38 104.5 2138.86 104.5H2066.86C2061.34 104.5 2056.86 100.023 2056.86 94.5V20.5C2056.86 14.9772 2061.34 10.5 2066.86 10.5H2138.86Z" fill="white"/>
<path d="M1338.31 210.5C1385.62 210.5 1426.61 220.824 1461.26 241.47C1461.29 241.485 1461.31 241.499 1461.34 241.515L1461.37 241.536C1496.66 262.19 1523.63 291.16 1542.28 328.444L1542.35 328.571C1561.66 365.889 1571.31 409.865 1571.31 460.5C1571.31 466.75 1571.02 472.707 1570.43 478.371L1570.31 479.5C1570.31 482.996 1570.09 486.709 1569.64 490.637C1569.06 495.687 1564.78 499.5 1559.7 499.5H1170.39L1170.58 501.757C1174.83 549.012 1189.74 587.924 1215.31 618.495L1215.31 618.5C1246.65 654.499 1288.31 672.5 1340.31 672.5C1372.98 672.5 1401.65 665.5 1426.31 651.5L1427.38 650.858C1449.75 637.293 1466.53 618.729 1477.75 595.196L1477.91 594.874C1479.62 591.58 1483.04 589.5 1486.77 589.5H1541.68C1545.04 589.5 1548.17 591.182 1550.02 593.979C1551.87 596.777 1552.2 600.317 1550.89 603.405C1533.84 643.596 1507.64 675.943 1472.34 700.479C1472.33 700.486 1472.32 700.493 1472.31 700.5C1433.65 727.166 1388.31 740.5 1336.31 740.5C1287.68 740.5 1244.7 729.182 1207.39 706.546C1207.35 706.523 1207.31 706.499 1207.27 706.476C1169.96 683.145 1140.64 651.486 1119.31 611.5C1097.98 571.5 1087.31 525.5 1087.31 473.5C1087.31 422.314 1097.32 377.262 1117.35 338.346L1117.37 338.308L1118.29 336.537L1118.34 336.443C1139.67 296.471 1169.33 265.489 1207.31 243.5C1245.31 221.5 1288.98 210.5 1338.31 210.5ZM1338.31 278.5C1287.64 278.5 1246.65 296.167 1215.31 331.5L1214.22 332.746C1191.8 358.61 1177.78 391.225 1172.15 430.59L1171.88 432.5H1491.47C1486.92 388.986 1473.9 354.357 1452.41 328.613C1452.36 328.561 1452.32 328.507 1452.28 328.454C1425.61 295.154 1387.63 278.5 1338.31 278.5Z" fill="white"/>
<path d="M625.047 220.5C630.57 220.5 635.047 224.977 635.047 230.5V720.5C635.047 726.023 630.57 730.5 625.047 730.5H565.047C559.524 730.5 555.047 726.023 555.047 720.5V230.5C555.047 224.977 559.524 220.5 565.047 220.5H625.047ZM631.047 10.5C636.57 10.5 641.047 14.9772 641.047 20.5V94.5C641.047 100.023 636.57 104.5 631.047 104.5H559.047C553.524 104.5 549.047 100.023 549.047 94.5V20.5C549.047 14.9772 553.524 10.5 559.047 10.5H631.047Z" fill="white"/>
<path d="M72.5 10.5C78.0228 10.5 82.5 14.9772 82.5 20.5V658.5H442.5C448.023 658.5 452.5 662.977 452.5 668.5V720.5C452.5 726.023 448.023 730.5 442.5 730.5H10.5C4.97715 730.5 0.5 726.023 0.5 720.5V20.5C0.5 14.9772 4.97715 10.5 10.5 10.5H72.5Z" fill="white"/>
<path d="M999.328 0.5C1012.62 0.5 1022.94 1.16306 1030.27 2.48926L1030.39 2.51074C1035.04 3.28628 1039.2 4.17062 1042.9 5.15723C1047.28 6.3241 1050.33 10.2893 1050.33 14.8203V58.0332C1050.33 61 1049.01 63.8139 1046.73 65.7139C1044.45 67.6138 1041.45 68.4035 1038.53 67.8701C1036.04 67.4155 1033.34 66.9653 1030.43 66.5166C1030.39 66.5105 1030.35 66.5037 1030.31 66.4971C1022.32 65.1657 1013.65 64.5 1004.33 64.5C973.656 64.5 950.992 72.1697 936.328 87.5L935.677 88.2227C922.113 103.509 915.328 124.934 915.328 152.5V220.5H1029.33C1034.85 220.5 1039.33 224.977 1039.33 230.5V278.5C1039.33 284.023 1034.85 288.5 1029.33 288.5H915.328V720.5C915.328 726.023 910.851 730.5 905.328 730.5H845.328C839.805 730.5 835.328 726.023 835.328 720.5V288.5H740.328C734.805 288.5 730.328 284.023 730.328 278.5V230.5C730.328 224.977 734.805 220.5 740.328 220.5H835.328V148.5C835.328 101.852 848.651 65.5323 875.291 39.5361C875.323 39.5047 875.356 39.4734 875.389 39.4424C902.721 13.4819 944.033 0.5 999.328 0.5Z" fill="white"/>
<path d="M1797.91 365.5C1803.43 365.5 1807.91 369.977 1807.91 375.5V588.5C1807.91 617.174 1815.24 638.17 1829.91 651.5L1830.6 652.12C1845.32 665.039 1869.09 671.5 1901.91 671.5C1915.24 671.5 1926.57 670.833 1935.91 669.5L1935.92 669.498C1940.01 668.678 1943.8 667.795 1947.28 666.849C1950.28 666.029 1953.5 666.658 1955.98 668.55C1958.45 670.442 1959.91 673.38 1959.91 676.496V723.217C1959.91 727.776 1956.82 731.757 1952.41 732.898C1946.7 734.375 1939.55 735.59 1930.91 736.5L1928.64 736.863C1917.19 738.621 1904.28 739.5 1889.91 739.5C1833.31 739.5 1792.01 726.864 1766.01 701.597C1765.94 701.53 1765.87 701.463 1765.8 701.394C1740.54 675.4 1727.91 638.103 1727.91 589.5V375.5C1727.91 369.977 1732.38 365.5 1737.91 365.5H1797.91ZM1794.39 76.5664C1797.47 75.4147 1800.91 75.8418 1803.6 77.7099C1806.3 79.5781 1807.91 82.6499 1807.91 85.9296V220.5H1949.91C1955.43 220.5 1959.91 224.977 1959.91 230.5V278.5C1959.91 284.023 1955.43 288.5 1949.91 288.5H1632.91C1627.38 288.5 1622.91 284.023 1622.91 278.5V230.5C1622.91 224.977 1627.38 220.5 1632.91 220.5H1727.91V108.43C1727.91 104.261 1730.49 100.53 1734.39 99.0664L1794.39 76.5664Z" fill="white"/>
<path d="M3069.54 219.5C3072.88 219.5 3076 221.167 3077.85 223.943C3079.71 226.72 3080.05 230.24 3078.78 233.325L2791.06 928.325C2789.51 932.063 2785.86 934.5 2781.82 934.5H2718.52C2715.17 934.5 2712.05 932.827 2710.2 930.042C2708.34 927.257 2708 923.728 2709.29 920.642L2999.93 225.642L3000.08 225.297C3001.71 221.773 3005.25 219.5 3009.16 219.5H3069.54ZM2678.9 221C2682.9 221 2686.52 223.389 2688.09 227.07L2813.32 520.064C2814.39 522.578 2814.39 525.421 2813.31 527.934L2783.53 597.432C2781.96 601.087 2778.38 603.466 2774.4 603.492C2770.43 603.518 2766.81 601.185 2765.2 597.551L2604.24 235.059C2602.87 231.965 2603.15 228.387 2605 225.55C2606.84 222.712 2610 221 2613.38 221H2678.9Z" fill="white"/>
<path d="M2507.14 0.5C2520.44 0.5 2530.75 1.16306 2538.08 2.48926L2538.21 2.51074C2542.85 3.28628 2547.01 4.17062 2550.72 5.15723C2555.09 6.3241 2558.14 10.2893 2558.14 14.8203V58.0332C2558.14 61 2556.82 63.8139 2554.54 65.7139C2552.27 67.6138 2549.26 68.4035 2546.34 67.8701C2543.86 67.4155 2541.15 66.9653 2538.24 66.5166C2538.2 66.5105 2538.16 66.5037 2538.12 66.4971C2530.13 65.1657 2521.47 64.5 2512.14 64.5C2481.47 64.5 2458.8 72.1697 2444.14 87.5L2443.49 88.2227C2429.93 103.509 2423.14 124.934 2423.14 152.5V220.5H2537.14C2542.66 220.5 2547.14 224.977 2547.14 230.5V278.5C2547.14 284.023 2542.66 288.5 2537.14 288.5H2423.14V720.5C2423.14 726.023 2418.66 730.5 2413.14 730.5H2353.14C2347.62 730.5 2343.14 726.023 2343.14 720.5V288.5H2248.14C2242.62 288.5 2238.14 284.023 2238.14 278.5V230.5C2238.14 224.977 2242.62 220.5 2248.14 220.5H2343.14V148.5C2343.14 101.852 2356.46 65.5323 2383.1 39.5361C2383.14 39.5047 2383.17 39.4734 2383.2 39.4424C2410.53 13.4819 2451.85 0.5 2507.14 0.5Z" stroke="white"/>
<path d="M2132.86 220.5C2138.38 220.5 2142.86 224.977 2142.86 230.5V720.5C2142.86 726.023 2138.38 730.5 2132.86 730.5H2072.86C2067.34 730.5 2062.86 726.023 2062.86 720.5V230.5L2062.87 229.985C2063.14 224.702 2067.51 220.5 2072.86 220.5H2132.86ZM2138.86 10.5C2144.38 10.5 2148.86 14.9772 2148.86 20.5V94.5C2148.86 100.023 2144.38 104.5 2138.86 104.5H2066.86C2061.34 104.5 2056.86 100.023 2056.86 94.5V20.5C2056.86 14.9772 2061.34 10.5 2066.86 10.5H2138.86Z" stroke="white"/>
<path d="M1338.31 210.5C1385.62 210.5 1426.61 220.824 1461.26 241.47C1461.29 241.485 1461.31 241.499 1461.34 241.515L1461.37 241.536C1496.66 262.19 1523.63 291.16 1542.28 328.444L1542.35 328.571C1561.66 365.889 1571.31 409.865 1571.31 460.5C1571.31 466.75 1571.02 472.707 1570.43 478.371L1570.31 479.5C1570.31 482.996 1570.09 486.709 1569.64 490.637C1569.06 495.687 1564.78 499.5 1559.7 499.5H1170.39L1170.58 501.757C1174.83 549.012 1189.74 587.924 1215.31 618.495L1215.31 618.5C1246.65 654.499 1288.31 672.5 1340.31 672.5C1372.98 672.5 1401.65 665.5 1426.31 651.5L1427.38 650.858C1449.75 637.293 1466.53 618.729 1477.75 595.196L1477.91 594.874C1479.62 591.58 1483.04 589.5 1486.77 589.5H1541.68C1545.04 589.5 1548.17 591.182 1550.02 593.979C1551.87 596.777 1552.2 600.317 1550.89 603.405C1533.84 643.596 1507.64 675.943 1472.34 700.479C1472.33 700.486 1472.32 700.493 1472.31 700.5C1433.65 727.166 1388.31 740.5 1336.31 740.5C1287.68 740.5 1244.7 729.182 1207.39 706.546C1207.35 706.523 1207.31 706.499 1207.27 706.476C1169.96 683.145 1140.64 651.486 1119.31 611.5C1097.98 571.5 1087.31 525.5 1087.31 473.5C1087.31 422.314 1097.32 377.262 1117.35 338.346L1117.37 338.308L1118.29 336.537L1118.34 336.443C1139.67 296.471 1169.33 265.489 1207.31 243.5C1245.31 221.5 1288.98 210.5 1338.31 210.5ZM1338.31 278.5C1287.64 278.5 1246.65 296.167 1215.31 331.5L1214.22 332.746C1191.8 358.61 1177.78 391.225 1172.15 430.59L1171.88 432.5H1491.47C1486.92 388.986 1473.9 354.357 1452.41 328.613C1452.36 328.561 1452.32 328.507 1452.28 328.454C1425.61 295.154 1387.63 278.5 1338.31 278.5Z" stroke="white"/>
<path d="M625.047 220.5C630.57 220.5 635.047 224.977 635.047 230.5V720.5C635.047 726.023 630.57 730.5 625.047 730.5H565.047C559.524 730.5 555.047 726.023 555.047 720.5V230.5C555.047 224.977 559.524 220.5 565.047 220.5H625.047ZM631.047 10.5C636.57 10.5 641.047 14.9772 641.047 20.5V94.5C641.047 100.023 636.57 104.5 631.047 104.5H559.047C553.524 104.5 549.047 100.023 549.047 94.5V20.5C549.047 14.9772 553.524 10.5 559.047 10.5H631.047Z" stroke="white"/>
<path d="M72.5 10.5C78.0228 10.5 82.5 14.9772 82.5 20.5V658.5H442.5C448.023 658.5 452.5 662.977 452.5 668.5V720.5C452.5 726.023 448.023 730.5 442.5 730.5H10.5C4.97715 730.5 0.5 726.023 0.5 720.5V20.5C0.5 14.9772 4.97715 10.5 10.5 10.5H72.5Z" stroke="white"/>
<path d="M999.328 0.5C1012.62 0.5 1022.94 1.16306 1030.27 2.48926L1030.39 2.51074C1035.04 3.28628 1039.2 4.17062 1042.9 5.15723C1047.28 6.3241 1050.33 10.2893 1050.33 14.8203V58.0332C1050.33 61 1049.01 63.8139 1046.73 65.7139C1044.45 67.6138 1041.45 68.4035 1038.53 67.8701C1036.04 67.4155 1033.34 66.9653 1030.43 66.5166C1030.39 66.5105 1030.35 66.5037 1030.31 66.4971C1022.32 65.1657 1013.65 64.5 1004.33 64.5C973.656 64.5 950.992 72.1697 936.328 87.5L935.677 88.2227C922.113 103.509 915.328 124.934 915.328 152.5V220.5H1029.33C1034.85 220.5 1039.33 224.977 1039.33 230.5V278.5C1039.33 284.023 1034.85 288.5 1029.33 288.5H915.328V720.5C915.328 726.023 910.851 730.5 905.328 730.5H845.328C839.805 730.5 835.328 726.023 835.328 720.5V288.5H740.328C734.805 288.5 730.328 284.023 730.328 278.5V230.5C730.328 224.977 734.805 220.5 740.328 220.5H835.328V148.5C835.328 101.852 848.651 65.5323 875.291 39.5361C875.323 39.5047 875.356 39.4734 875.389 39.4424C902.721 13.4819 944.033 0.5 999.328 0.5Z" stroke="white"/>
<path d="M1797.91 365.5C1803.43 365.5 1807.91 369.977 1807.91 375.5V588.5C1807.91 617.174 1815.24 638.17 1829.91 651.5L1830.6 652.12C1845.32 665.039 1869.09 671.5 1901.91 671.5C1915.24 671.5 1926.57 670.833 1935.91 669.5L1935.92 669.498C1940.01 668.678 1943.8 667.795 1947.28 666.849C1950.28 666.029 1953.5 666.658 1955.98 668.55C1958.45 670.442 1959.91 673.38 1959.91 676.496V723.217C1959.91 727.776 1956.82 731.757 1952.41 732.898C1946.7 734.375 1939.55 735.59 1930.91 736.5L1928.64 736.863C1917.19 738.621 1904.28 739.5 1889.91 739.5C1833.31 739.5 1792.01 726.864 1766.01 701.597C1765.94 701.53 1765.87 701.463 1765.8 701.394C1740.54 675.4 1727.91 638.103 1727.91 589.5V375.5C1727.91 369.977 1732.38 365.5 1737.91 365.5H1797.91ZM1794.39 76.5664C1797.47 75.4147 1800.91 75.8418 1803.6 77.7099C1806.3 79.5781 1807.91 82.6499 1807.91 85.9296V220.5H1949.91C1955.43 220.5 1959.91 224.977 1959.91 230.5V278.5C1959.91 284.023 1955.43 288.5 1949.91 288.5H1632.91C1627.38 288.5 1622.91 284.023 1622.91 278.5V230.5C1622.91 224.977 1627.38 220.5 1632.91 220.5H1727.91V108.43C1727.91 104.261 1730.49 100.53 1734.39 99.0664L1794.39 76.5664Z" stroke="white"/>
<path d="M3069.54 219.5C3072.88 219.5 3076 221.167 3077.85 223.943C3079.71 226.72 3080.05 230.24 3078.78 233.325L2791.06 928.325C2789.51 932.063 2785.86 934.5 2781.82 934.5H2718.52C2715.17 934.5 2712.05 932.827 2710.2 930.042C2708.34 927.257 2708 923.728 2709.29 920.642L2999.93 225.642L3000.08 225.297C3001.71 221.773 3005.25 219.5 3009.16 219.5H3069.54ZM2678.9 221C2682.9 221 2686.52 223.389 2688.09 227.07L2813.32 520.064C2814.39 522.578 2814.39 525.421 2813.31 527.934L2783.53 597.432C2781.96 601.087 2778.38 603.466 2774.4 603.492C2770.43 603.518 2766.81 601.185 2765.2 597.551L2604.24 235.059C2602.87 231.965 2603.15 228.387 2605 225.55C2606.84 222.712 2610 221 2613.38 221H2678.9Z" stroke="white"/>
</svg>
