<svg width="3080" height="934" viewBox="0 0 3080 934" fill="none" xmlns="http://www.w3.org/2000/svg">
<path d="M2506.64 0C2519.94 0 2530.25 0.663061 2537.58 1.98926L2537.71 2.01074C2542.35 2.78628 2546.51 3.67062 2550.22 4.65723C2554.59 5.8241 2557.64 9.7893 2557.64 14.3203V57.5332C2557.64 60.5 2556.32 63.3139 2554.04 65.2139C2551.77 67.1138 2548.76 67.9035 2545.84 67.3701C2543.36 66.9155 2540.65 66.4653 2537.74 66.0166C2537.7 66.0105 2537.66 66.0037 2537.62 65.9971C2529.63 64.6657 2520.97 64 2511.64 64C2480.97 64 2458.3 71.6697 2443.64 87L2442.99 87.7227C2429.43 103.009 2422.64 124.434 2422.64 152V220H2536.64C2542.16 220 2546.64 224.477 2546.64 230V278C2546.64 283.523 2542.16 288 2536.64 288H2422.64V720C2422.64 725.523 2418.16 730 2412.64 730H2352.64C2347.12 730 2342.64 725.523 2342.64 720V288H2247.64C2242.12 288 2237.64 283.523 2237.64 278V230C2237.64 224.477 2242.12 220 2247.64 220H2342.64V148C2342.64 101.352 2355.96 65.0323 2382.6 39.0361C2382.64 39.0047 2382.67 38.9734 2382.7 38.9424C2410.03 12.9819 2451.35 0 2506.64 0Z" fill="black"/>
<path d="M2132.36 220C2137.88 220 2142.36 224.477 2142.36 230V720C2142.36 725.523 2137.88 730 2132.36 730H2072.36C2066.84 730 2062.36 725.523 2062.36 720V230L2062.37 229.485C2062.64 224.202 2067.01 220 2072.36 220H2132.36ZM2138.36 10C2143.88 10 2148.36 14.4772 2148.36 20V94C2148.36 99.5228 2143.88 104 2138.36 104H2066.36C2060.84 104 2056.36 99.5228 2056.36 94V20C2056.36 14.4772 2060.84 10 2066.36 10H2138.36Z" fill="black"/>
<path d="M1337.81 210C1385.12 210 1426.11 220.324 1460.76 240.97C1460.79 240.985 1460.81 240.999 1460.84 241.015L1460.87 241.036C1496.16 261.69 1523.13 290.66 1541.78 327.944L1541.85 328.071C1561.16 365.389 1570.81 409.365 1570.81 460C1570.81 466.25 1570.52 472.207 1569.93 477.871L1569.81 479C1569.81 482.496 1569.59 486.209 1569.14 490.137C1568.56 495.187 1564.28 499 1559.2 499H1169.89L1170.08 501.257C1174.33 548.512 1189.24 587.424 1214.81 617.995L1214.81 618C1246.15 653.999 1287.81 672 1339.81 672C1372.48 672 1401.15 665 1425.81 651L1426.88 650.358C1449.25 636.793 1466.03 618.229 1477.25 594.696L1477.41 594.374C1479.12 591.08 1482.54 589 1486.27 589H1541.18C1544.54 589 1547.67 590.682 1549.52 593.479C1551.37 596.277 1551.7 599.817 1550.39 602.905C1533.34 643.096 1507.14 675.443 1471.84 699.979C1471.83 699.986 1471.82 699.993 1471.81 700C1433.15 726.666 1387.81 740 1335.81 740C1287.18 740 1244.2 728.682 1206.89 706.046C1206.85 706.023 1206.81 705.999 1206.77 705.976C1169.46 682.645 1140.14 650.986 1118.81 611C1097.48 571 1086.81 525 1086.81 473C1086.81 421.814 1096.82 376.762 1116.85 337.846L1116.87 337.808L1117.79 336.037L1117.84 335.943C1139.17 295.971 1168.83 264.989 1206.81 243C1244.81 221 1288.48 210 1337.81 210ZM1337.81 278C1287.14 278 1246.15 295.667 1214.81 331L1213.72 332.246C1191.3 358.11 1177.28 390.725 1171.65 430.09L1171.38 432H1490.97C1486.42 388.486 1473.4 353.857 1451.91 328.113C1451.86 328.061 1451.82 328.007 1451.78 327.954C1425.11 294.654 1387.13 278 1337.81 278Z" fill="black"/>
<path d="M624.547 220C630.07 220 634.547 224.477 634.547 230V720C634.547 725.523 630.07 730 624.547 730H564.547C559.024 730 554.547 725.523 554.547 720V230C554.547 224.477 559.024 220 564.547 220H624.547ZM630.547 10C636.07 10 640.547 14.4772 640.547 20V94C640.547 99.5228 636.07 104 630.547 104H558.547C553.024 104 548.547 99.5228 548.547 94V20C548.547 14.4772 553.024 10 558.547 10H630.547Z" fill="black"/>
<path d="M72 10C77.5228 10 82 14.4772 82 20V658H442C447.523 658 452 662.477 452 668V720C452 725.523 447.523 730 442 730H10C4.47715 730 0 725.523 0 720V20C0 14.4772 4.47715 10 10 10H72Z" fill="black"/>
<path d="M998.828 0C1012.12 0 1022.44 0.663061 1029.77 1.98926L1029.89 2.01074C1034.54 2.78628 1038.7 3.67062 1042.4 4.65723C1046.78 5.8241 1049.83 9.7893 1049.83 14.3203V57.5332C1049.83 60.5 1048.51 63.3139 1046.23 65.2139C1043.95 67.1138 1040.95 67.9035 1038.03 67.3701C1035.54 66.9155 1032.84 66.4653 1029.93 66.0166C1029.89 66.0105 1029.85 66.0037 1029.81 65.9971C1021.82 64.6657 1013.15 64 1003.83 64C973.156 64 950.492 71.6697 935.828 87L935.177 87.7227C921.613 103.009 914.828 124.434 914.828 152V220H1028.83C1034.35 220 1038.83 224.477 1038.83 230V278C1038.83 283.523 1034.35 288 1028.83 288H914.828V720C914.828 725.523 910.351 730 904.828 730H844.828C839.305 730 834.828 725.523 834.828 720V288H739.828C734.305 288 729.828 283.523 729.828 278V230C729.828 224.477 734.305 220 739.828 220H834.828V148C834.828 101.352 848.151 65.0323 874.791 39.0361C874.823 39.0047 874.856 38.9734 874.889 38.9424C902.221 12.9819 943.533 0 998.828 0Z" fill="black"/>
<path d="M1797.41 365C1802.93 365 1807.41 369.477 1807.41 375V588C1807.41 616.674 1814.74 637.67 1829.41 651L1830.1 651.62C1844.82 664.539 1868.59 671 1901.41 671C1914.74 671 1926.07 670.333 1935.41 669L1935.42 668.998C1939.51 668.178 1943.3 667.295 1946.78 666.349C1949.78 665.529 1953 666.158 1955.48 668.05C1957.95 669.942 1959.41 672.88 1959.41 675.996V722.717C1959.41 727.276 1956.32 731.257 1951.91 732.398C1946.2 733.875 1939.05 735.09 1930.41 736L1928.14 736.363C1916.69 738.121 1903.78 739 1889.41 739C1832.81 739 1791.51 726.364 1765.51 701.097C1765.44 701.03 1765.37 700.963 1765.3 700.894C1740.04 674.9 1727.41 637.603 1727.41 589V375C1727.41 369.477 1731.88 365 1737.41 365H1797.41ZM1793.89 76.0664C1796.97 74.9147 1800.41 75.3418 1803.1 77.2099C1805.8 79.0781 1807.41 82.1499 1807.41 85.4296V220H1949.41C1954.93 220 1959.41 224.477 1959.41 230V278C1959.41 283.523 1954.93 288 1949.41 288H1632.41C1626.88 288 1622.41 283.523 1622.41 278V230C1622.41 224.477 1626.88 220 1632.41 220H1727.41V107.93C1727.41 103.761 1729.99 100.03 1733.89 98.5664L1793.89 76.0664Z" fill="black"/>
<path d="M3069.04 219C3072.38 219 3075.5 220.667 3077.35 223.443C3079.21 226.22 3079.55 229.74 3078.28 232.825L2790.56 927.825C2789.01 931.563 2785.36 934 2781.32 934H2718.02C2714.67 934 2711.55 932.327 2709.7 929.542C2707.84 926.757 2707.5 923.228 2708.79 920.142L2999.43 225.142L2999.58 224.797C3001.21 221.273 3004.75 219 3008.66 219H3069.04ZM2678.4 220.5C2682.4 220.5 2686.02 222.889 2687.59 226.57L2812.82 519.564C2813.89 522.078 2813.89 524.921 2812.81 527.434L2783.03 596.932C2781.46 600.587 2777.88 602.966 2773.9 602.992C2769.93 603.018 2766.31 600.685 2764.7 597.051L2603.74 234.559C2602.37 231.465 2602.65 227.887 2604.5 225.05C2606.34 222.212 2609.5 220.5 2612.88 220.5H2678.4Z" fill="black"/>
</svg>
